HIERARCHY
ROOT WRIST
{
	OFFSET 0.000000 0.000000 0.000000
	CHANNELS 6 Xposition Yposition Zposition Yrotation Xrotation Zrotation
	JOINT THUMB_CMC_FE
	{
		OFFSET 0.225143 0.117753 -0.062308
		CHANNELS 3 Yrotation Xrotation Zrotation
		JOINT THUMB_CMC_AA
		{
			OFFSET 0.212856 -0.150507 0.098851
			CHANNELS 3 Yrotation Xrotation Zrotation
			JOINT THUMB_MCP_FE
			{
				OFFSET -0.322503 -0.167445 -0.031436
				CHANNELS 3 Yrotation Xrotation Zrotation
				JOINT THUMB_IP_FE
				{
					OFFSET 0.295233 -0.236404 0.025845
					CHANNELS 3 Yrotation Xrotation Zrotation
					End Site
					{
						OFFSET 0.000000 0.000000 0.000000
					}
				}
			}
		}
	}
	JOINT INDEX_MCP
	{
		OFFSET 1.076913 0.264198 -0.014768
		CHANNELS 3 Yrotation Xrotation Zrotation
		JOINT INDEX_PIP_FE
		{
			OFFSET 0.425053 0.013289 0.013619
			CHANNELS 3 Yrotation Xrotation Zrotation
			JOINT INDEX_DIP_FE
			{
				OFFSET 0.271505 -0.024898 0.000550
				CHANNELS 3 Yrotation Xrotation Zrotation
				End Site
				{
					OFFSET 0.000000 0.000000 0.000000
				}
			}
		}
	}
	JOINT MIDDLE_MCP
	{
		OFFSET 1.072991 0.019362 0.038780
		CHANNELS 3 Yrotation Xrotation Zrotation
		JOINT MIDDLE_PIP_FE
		{
			OFFSET 0.480704 0.002618 0.028696
			CHANNELS 3 Yrotation Xrotation Zrotation
			JOINT MIDDLE_DIP_FE
			{
				OFFSET 0.307486 -0.031129 -0.000643
				CHANNELS 3 Yrotation Xrotation Zrotation
				End Site
				{
					OFFSET 0.000000 0.000000 0.000000
				}
			}
		}
	}
	JOINT RING_MCP
	{
		OFFSET 0.994992 -0.195930 -0.005938
		CHANNELS 3 Yrotation Xrotation Zrotation
		JOINT RING_PIP_FE
		{
			OFFSET 0.436995 0.003792 0.019994
			CHANNELS 3 Yrotation Xrotation Zrotation
			JOINT RING_DIP_FE
			{
				OFFSET 0.295558 -0.038341 -0.006642
				CHANNELS 3 Yrotation Xrotation Zrotation
				End Site
				{
					OFFSET 0.000000 0.000000 0.000000
				}
			}
		}
	}
	JOINT PINKY_MCP
	{
		OFFSET 0.873858 -0.393246 -0.086282
		CHANNELS 3 Yrotation Xrotation Zrotation
		JOINT PINKY_PIP_FE
		{
			OFFSET 0.343972 -0.016492 0.013445
			CHANNELS 3 Yrotation Xrotation Zrotation
			JOINT PINKY_DIP_FE
			{
				OFFSET 0.224713 -0.036309 -0.010265
				CHANNELS 3 Yrotation Xrotation Zrotation
				End Site
				{
					OFFSET 0.000000 0.000000 0.000000
				}
			}
		}
	}
}
MOTION
Frames: 16
Frame Time: 0.008333334
3.904258 3.290263 6.897483 89.512150 -69.071350 -8.413147 61.461190 4.834466 69.384430 119.352900 -30.976930 6.946682 -112.863900 -65.843200 -63.560700 4.562096 -8.459839 -22.073120 -148.779800 2.837544 178.384200 -41.978300 -86.125610 43.806840 -2.052612 1.704986 -36.921940 -175.988100 -1.160278 -170.649800 -39.240600 -88.411320 33.389230 -6.002533 4.395454 5.204803 161.553300 -0.769104 -166.176100 -31.479520 -85.617800 -0.339539 0.199300 0.562931 4.968519 155.415400 -4.221558 -157.439500 -48.977600 -83.530610 27.662280 5.539807 0.809174 -15.312770 
3.903570 3.286331 6.899843 89.298710 -68.875890 -8.205383 61.461180 4.834476 69.164580 119.352900 -30.976930 6.774525 -112.864000 -65.843260 -63.223480 4.562093 -8.459839 -22.443150 -148.779400 2.837523 178.383800 -41.978210 -86.125670 43.806810 -2.052643 1.704989 -36.921940 -175.833900 -1.175293 -170.539200 -39.241580 -88.411440 33.488260 -6.002533 4.395441 5.204803 161.553300 -0.769135 -166.114000 -31.479580 -85.617830 -0.485474 0.199304 0.562912 4.968522 155.415300 -4.221527 -157.419200 -48.977390 -83.530520 27.466800 5.539814 0.809174 -15.026310 
3.903488 3.282573 6.902418 89.158970 -68.753850 -8.065887 61.461190 4.834472 69.051910 119.352900 -30.976930 6.563496 -112.864000 -65.843260 -62.893800 4.562089 -8.459839 -22.330540 -148.779700 2.837536 178.385300 -41.978120 -86.125670 43.806790 -2.052643 1.704997 -36.921940 -175.911700 -1.167725 -170.356300 -39.241210 -88.411440 32.908510 -6.002502 4.395444 5.204801 161.553300 -0.769104 -166.069900 -31.479310 -85.617740 -0.870941 0.199301 0.562936 4.968524 155.521200 -4.264130 -157.434500 -48.977420 -83.530580 27.394450 5.539797 0.809187 -15.211670 
3.903878 3.277829 6.904792 88.820110 -68.559140 -7.706970 61.461170 4.834482 68.856080 119.352900 -30.976930 6.434535 -112.864000 -65.843230 -62.546720 4.562077 -8.459839 -22.599270 -148.780900 2.837579 178.385600 -41.978210 -86.125700 43.807230 -2.052612 1.704984 -36.921940 -175.989900 -1.160095 -170.289600 -39.240260 -88.411560 32.720510 -6.002533 4.395467 5.204804 161.553300 -0.769104 -165.919800 -31.479520 -85.617800 -1.456665 0.199305 0.562922 4.968523 155.537300 -4.270599 -157.324400 -48.977420 -83.530610 26.859260 5.539806 0.809189 -14.429630 
3.904875 3.274827 6.907106 88.717850 -68.327390 -7.578064 61.461180 4.834470 68.701740 119.352900 -30.976930 6.332886 -112.864000 -65.843260 -62.393980 4.562096 -8.459839 -23.167140 -148.782300 2.837624 178.385800 -41.978270 -86.125700 43.807610 -2.052612 1.705009 -36.921940 -176.162700 -1.143250 -170.177800 -39.240720 -88.411440 32.497600 -6.002502 4.395442 5.204805 161.553300 -0.769104 -165.858300 -31.479370 -85.617830 -1.446655 0.199300 0.562938 4.968521 155.509900 -4.259613 -157.311700 -48.977630 -83.530610 26.590740 5.539820 0.809166 -14.266820 
3.905292 3.273497 6.908886 88.671650 -68.058560 -7.566101 61.461190 4.834468 68.700680 119.352900 -30.976930 6.324779 -112.863900 -65.843230 -62.331090 4.562072 -8.459869 -23.377590 -148.783500 2.837670 178.386000 -41.978090 -86.125670 43.807800 -2.052612 1.704999 -36.921940 -176.442800 -1.115906 -170.186600 -39.240200 -88.411190 32.151660 -6.002533 4.395451 5.204806 161.553300 -0.769104 -165.883700 -31.479550 -85.617830 -1.313202 0.199312 0.562922 4.968521 155.754000 -4.357666 -157.471200 -48.977480 -83.530580 27.148020 5.539814 0.809178 -13.868130 
3.907023 3.271811 6.909948 88.507480 -67.872680 -7.372192 61.461170 4.834475 68.630520 119.352900 -30.976900 6.347527 -112.863900 -65.843230 -62.163210 4.562086 -8.459839 -23.580930 -148.783900 2.837681 178.385600 -41.978390 -86.125700 43.808090 -2.052612 1.704990 -36.921940 -176.451200 -1.115082 -170.077200 -39.240600 -88.411320 32.214260 -6.002533 4.395446 5.204801 161.553300 -0.769104 -165.866700 -31.479430 -85.617740 -1.277466 0.199302 0.562925 4.968517 155.789300 -4.371826 -157.492700 -48.977570 -83.530640 27.276790 5.539807 0.809181 -13.984650 
3.909093 3.271369 6.910321 88.367390 -67.811310 -7.183289 61.461170 4.834470 69.317120 119.351600 -30.977260 6.323885 -112.869800 -65.821200 -62.718900 4.538861 -8.474518 -22.886200 -148.669900 2.824353 177.349500 -41.499150 -86.086670 43.952340 -2.093628 1.907888 -34.445560 -176.377900 -1.126068 -170.732400 -39.315430 -88.413790 32.225510 -6.002533 4.395446 5.204800 161.929600 -0.890167 -166.513500 -31.323760 -85.596560 -0.929627 0.198394 0.561294 4.930233 156.461700 -4.679047 -158.147600 -48.678830 -83.502560 28.000400 5.526198 0.778125 -14.758300 
3.912608 3.270889 6.909825 88.133600 -67.839420 -6.828217 61.461170 4.834470 70.003910 119.350500 -30.977510 6.300079 -112.874800 -65.804080 -63.275730 4.520634 -8.485687 -22.191740 -148.555600 2.813083 176.312800 -41.127010 -86.056430 44.204740 -2.117828 2.068258 -31.948520 -176.304500 -1.136200 -171.387700 -39.373930 -88.416020 32.220410 -6.002533 4.395449 5.204801 162.307400 -1.007019 -167.161400 -31.201660 -85.580230 -0.547943 0.197694 0.560031 4.891919 157.138200 -4.978729 -158.806700 -48.444090 -83.481200 28.788450 5.515978 0.753792 -15.532440 
3.916339 3.272196 6.908646 88.131440 -67.905090 -6.685852 61.461180 4.834475 70.690860 119.349800 -30.977690 6.276103 -112.878900 -65.791870 -63.833710 4.507459 -8.493439 -21.497710 -148.441000 2.803874 175.275400 -40.859380 -86.034970 44.562370 -2.127899 2.184544 -29.435730 -176.231000 -1.145508 -172.043200 -39.415740 -88.417110 32.198580 -6.002533 4.395461 5.204801 162.686600 -1.119629 -167.810200 -31.112920 -85.568540 -0.132690 0.197198 0.559152 4.853576 157.818800 -5.270752 -159.469900 -48.273800 -83.466310 29.641210 5.509016 0.736266 -16.306980 
3.920638 3.273928 6.907103 88.099320 -67.993010 -6.472687 61.461190 4.834475 71.377910 119.349400 -30.977810 6.251969 -112.881700 -65.784550 -64.392940 4.499413 -8.497894 -20.804170 -148.326300 2.796733 174.237800 -40.695190 -86.022520 45.023830 -2.126648 2.255511 -26.912260 -176.157300 -1.153961 -172.698700 -39.440860 -88.418090 32.160010 -6.002533 4.395442 5.204800 163.067200 -1.227936 -168.459900 -31.057980 -85.561550 0.316477 0.196905 0.558617 4.815226 158.503200 -5.554962 -160.137100 -48.168550 -83.457790 30.558980 5.505178 0.725594 -17.081730 
3.923505 3.275830 6.904801 87.955260 -68.073520 -6.210724 61.461190 4.834475 72.065010 119.349200 -30.977840 6.227679 -112.883200 -65.782170 -64.953490 4.496560 -8.499084 -20.111300 -148.211400 2.791672 173.199900 -40.634700 -86.018550 45.589100 -2.117065 2.280258 -24.383300 -176.083600 -1.161591 -173.354400 -39.448670 -88.418210 32.104190 -6.002533 4.395445 5.204803 163.449000 -1.331909 -169.110400 -31.037350 -85.559390 0.799922 0.196804 0.558429 4.776873 159.191300 -5.831238 -160.808000 -48.129270 -83.455630 31.542540 5.504320 0.721898 -17.856600 
3.912703 3.290174 6.902847 88.475330 -69.566350 -8.667175 61.461180 4.834476 72.752110 119.349400 -30.977810 6.203218 -112.883100 -65.784640 -65.515470 4.498955 -8.497131 -19.419220 -148.096500 2.788691 172.162100 -40.678860 -86.023440 46.258750 -2.102264 2.258238 -21.854160 -176.009800 -1.168365 -174.010000 -39.440430 -88.417970 32.032280 -6.002533 4.395443 5.204801 163.831900 -1.431580 -169.761600 -31.051570 -85.561860 1.318152 0.196910 0.558617 4.738523 159.883000 -6.099426 -161.482600 -48.157170 -83.459440 32.592810 5.506314 0.725141 -18.631410 
3.914301 3.289512 6.899258 88.384860 -71.041870 -8.757538 61.461190 4.834472 73.439150 119.349800 -30.977720 6.178622 -112.881400 -65.791990 -66.078890 4.506657 -8.492126 -18.728030 -147.981500 2.787789 171.124400 -40.830870 -86.036770 47.035660 -2.085358 2.189311 -19.330080 -175.935900 -1.174286 -174.665600 -39.415470 -88.417360 31.943650 -6.002533 4.395453 5.204803 164.216000 -1.526855 -170.413400 -31.101720 -85.568970 1.872094 0.197215 0.559153 4.700184 160.578000 -6.359467 -162.160600 -48.253970 -83.469120 33.711360 5.510992 0.735464 -19.406070 
3.915009 3.294011 6.894702 88.497510 -71.351930 -8.815186 61.461180 4.834473 73.248250 119.352900 -30.976960 5.994492 -112.891300 -65.799260 -66.448730 4.514064 -8.489655 -18.444790 -147.925000 2.792725 172.192700 -40.374450 -86.001250 45.873050 -2.087463 2.235910 -20.430180 -175.955500 -1.171906 -174.388100 -39.307010 -88.413540 31.655130 -6.002533 4.395450 5.204802 163.948300 -1.456116 -170.172500 -31.089900 -85.566190 1.353540 0.197211 0.559113 4.727021 160.156800 -6.195099 -161.865600 -48.273960 -83.469910 33.257500 5.514205 0.743741 -19.463010 
3.915034 3.300921 6.889289 88.714730 -71.439850 -9.039093 61.461190 4.834473 73.057360 119.355400 -30.976350 5.810666 -112.898700 -65.806060 -66.821010 4.521051 -8.487000 -18.161410 -147.868400 2.796607 173.261700 -40.055690 -85.974880 44.846310 -2.090027 2.261438 -21.535000 -175.975200 -1.169434 -174.110600 -39.219700 -88.410710 31.387760 -6.002533 4.395461 5.204803 163.680900 -1.384247 -169.932000 -31.089660 -85.564940 0.846514 0.197257 0.559180 4.753855 159.736400 -6.028564 -161.571900 -48.305660 -83.471770 32.815250 5.517342 0.751815 -19.520020 
